<svg xmlns="http://www.w3.org/2000/svg" xmlns:svg="http://www.w3.org/2000/svg" id="layer_1" width="595.28" height="566.929" x="0" y="0" enable-background="new 0 0 595.28 566.929" version="1.1" viewBox="0 0 595.28 566.929" xml:space="preserve"><metadata id="metadata226"/><g id="g121" transform="translate(214,230) rotate(25,0,0) scale(18.6,9.5)"><path id="path119" fill="#68B82E" fill-opacity=".5" d="M17.225,5.061c0,7.212-5.846,13.058-13.058,13.058c-7.212,0-13.058-5.846-13.058-13.058c0-7.212,5.847-13.059,13.059-13.058c7.207,0,13.05,5.839,13.058,13.045"/></g><g id="g125" transform="translate(232,187) rotate(98,0,0) scale(18.6,9.5)"><path id="path123" fill="#36A6DF" fill-opacity=".5" d="M16.007-6.704c0,7.212-5.847,13.058-13.058,13.058c-7.212,0-13.058-5.846-13.058-13.058s5.846-13.058,13.058-13.058c7.207,0,13.05,5.839,13.058,13.045"/></g><g id="g129" transform="translate(273,196) rotate(170,0,0) scale(18.6,9.5)"><path id="path127" fill="#E61E66" fill-opacity=".5" d="M10.074-8.077c0,7.212-5.846,13.058-13.058,13.058c-7.212,0-13.058-5.846-13.058-13.058s5.847-13.058,13.058-13.058c7.207,0,13.05,5.839,13.058,13.045"/></g><g id="g133" transform="translate(282,238) rotate(62,0,0) scale(18.6,9.5)"><path id="path131" fill="#E2AF49" fill-opacity=".5" d="M18.583-2.68c0,7.212-5.846,13.058-13.058,13.058S-7.533,4.531-7.533-2.681s5.846-13.058,13.058-13.058c7.207,0,13.05,5.839,13.058,13.045"/></g><g id="g137" transform="translate(242,260) rotate(133.99999999999997,0,0) scale(18.6,9.5)"><path id="path135" fill="#3DD18A" fill-opacity=".5" d="M14.18-10.681c0,7.212-5.846,13.058-13.058,13.058S-11.936-3.47-11.936-10.682S-6.089-23.74,1.122-23.74c7.207,0,13.05,5.839,13.058,13.045"/></g><g id="g141" transform="translate(33.469303,-4.098282)"><text id="text139" font-family="Arial" font-size="18" text-anchor="middle" transform="translate(37.5931,152.1423)">MS SQL Server</text></g><g id="g145" transform="translate(27.32188,-10.928752)"><text id="text143" font-family="Arial" font-size="18" text-anchor="middle" transform="translate(397.5569,43.8668)">Oracle</text></g><g id="g149" transform="translate(-30.054068,-24.589692)"><text id="text147" font-family="Arial" font-size="18" text-anchor="middle" transform="translate(540.4426,152.1422)">PostgreSQL</text></g><g id="g157"><text id="text155" font-family="Arial" font-size="18" text-anchor="middle" transform="translate(82.4123,545.3763)">H2</text></g><text id="text155-3" x="510.947" y="553.453" font-family="Arial" font-size="18" text-anchor="middle">Firebird</text></svg>